<?xml version="1.0" standalone="no"?>
<!DOCTYPE svg PUBLIC "-//W3C//DTD SVG 20010904//EN"
 "http://www.w3.org/TR/2001/REC-SVG-20010904/DTD/svg10.dtd">
<svg version="1.0" xmlns="http://www.w3.org/2000/svg"
 width="478.000000pt" height="500.000000pt" viewBox="0 0 478.000000 500.000000"
 preserveAspectRatio="xMidYMid meet">

<g transform="translate(0.000000,500.000000) scale(0.100000,-0.100000)"
fill="#000000" stroke="none">
<path d="M2344 4991 c-23 -10 -170 -142 -419 -376 -89 -82 -252 -235 -365
-340 -1051 -980 -1547 -1455 -1556 -1492 -10 -39 15 -79 102 -163 134 -129
170 -142 258 -95 26 14 49 25 52 25 2 0 4 -426 4 -947 0 -522 5 -990 10 -1042
8 -87 11 -96 42 -129 66 -69 44 -67 649 -70 l547 -3 3 990 4 989 31 39 31 38
653 0 653 0 31 -38 31 -39 4 -989 3 -990 562 3 c603 3 593 2 649 56 66 63 62
-19 65 1120 l3 1034 34 -31 c42 -37 72 -46 122 -36 63 11 215 181 230 256 6
30 -2 39 -218 253 -123 122 -352 343 -509 491 -157 149 -444 421 -639 605
-195 184 -452 427 -571 540 -357 338 -362 343 -423 347 -29 1 -61 -1 -73 -6z
m291 -1346 c171 -35 406 -152 519 -256 l51 -48 -55 -55 c-30 -31 -57 -56 -60
-56 -3 0 -38 25 -79 56 -187 140 -408 214 -642 214 -199 0 -440 -85 -607 -214
-40 -31 -73 -56 -75 -56 -1 0 -27 27 -56 61 -52 59 -53 60 -35 81 23 25 211
151 274 183 54 27 209 77 305 99 89 20 344 15 460 -9z m-117 -355 c102 -17
224 -67 324 -133 51 -34 94 -70 96 -79 2 -10 -18 -40 -48 -72 l-52 -55 -61 46
c-79 58 -115 76 -207 104 -89 27 -243 32 -330 10 -76 -19 -186 -71 -244 -115
l-49 -38 -58 58 -59 58 27 28 c38 37 182 122 252 149 116 44 280 60 409 39z
m5 -380 c71 -22 160 -76 164 -100 2 -8 -19 -39 -45 -69 l-48 -54 -73 36 c-98
49 -162 50 -263 6 l-71 -31 -53 59 -53 58 27 23 c100 85 274 115 415 72z"/>
<path d="M1873 2263 c-12 -2 -33 -17 -47 -33 -22 -26 -25 -41 -31 -162 -12
-229 0 -1967 14 -2010 9 -28 19 -40 39 -45 35 -10 1049 -10 1084 0 20 5 30 17
39 45 14 43 26 1780 14 2011 -7 127 -8 135 -35 165 l-28 31 -514 1 c-282 1
-523 0 -535 -3z m992 -133 l26 -10 -3 -884 c-2 -486 -7 -888 -11 -893 -11 -11
-963 -11 -974 0 -9 9 -17 1728 -8 1764 3 12 13 24 23 26 36 10 921 7 947 -3z
m-412 -1931 c25 -31 21 -72 -9 -103 -37 -36 -75 -34 -108 5 -28 33 -32 59 -15
90 23 43 99 47 132 8z"/>
</g>
</svg>
